<svg width="40" height="40" viewBox="0 0 40 40" fill="none" xmlns="http://www.w3.org/2000/svg">
<g id="Basket_alt_3">
<path id="Vector" d="M6.66699 6.66699H10.1054C10.8554 6.66699 11.2304 6.66699 11.5016 6.87879C11.7729 7.09058 11.8638 7.45436 12.0457 8.18192L12.5762 10.3038C12.94 11.7589 13.1219 12.4865 13.6644 12.9101C14.2069 13.3337 14.9569 13.3337 16.4568 13.3337H16.667" stroke="#242424" stroke-width="2.5" stroke-linecap="round"/>
<path id="Rectangle 41" d="M30 28.333H12.5848C11.4981 28.333 10.9548 28.333 10.6585 28.0177C10.5993 27.9546 10.5485 27.8841 10.5074 27.808C10.3019 27.4272 10.4737 26.9118 10.8174 25.8808V25.8808C11.1961 24.7446 11.3855 24.1765 11.8044 23.8164C11.891 23.742 11.9837 23.6751 12.0816 23.6166C12.5558 23.333 13.1546 23.333 14.3523 23.333H23.3333" stroke="#242424" stroke-width="2.5" stroke-linecap="round" stroke-linejoin="round"/>
<path id="Vector 339" d="M25.8615 23.333H16.7222C15.1038 23.333 14.2947 23.333 13.7352 22.859C13.1757 22.3851 13.0426 21.5869 12.7766 19.9906L12.2492 16.8262C11.9789 15.2047 11.8438 14.3939 12.2932 13.8634C12.7425 13.333 13.5645 13.333 15.2084 13.333H30.0976C31.548 13.333 32.2732 13.333 32.5663 13.8073C32.8594 14.2815 32.5351 14.9302 31.8864 16.2274L29.4392 21.1219C28.9013 22.1977 28.6324 22.7356 28.1491 23.0343C27.6657 23.333 27.0643 23.333 25.8615 23.333Z" stroke="#242424" stroke-width="2.5" stroke-linecap="round"/>
<circle id="Ellipse 167" cx="28.3337" cy="33.3337" r="1.66667" fill="#242424"/>
<circle id="Ellipse 168" cx="14.9997" cy="33.3337" r="1.66667" fill="#242424"/>
</g>
</svg>
