<svg width="96" height="20" viewBox="0 0 96 20" fill="none" xmlns="http://www.w3.org/2000/svg">
<g id="Group 2">
<path id="Star 1" d="M9.04894 2.92705C9.3483 2.00574 10.6517 2.00574 10.9511 2.92705L12.0206 6.21885C12.1545 6.63087 12.5385 6.90983 12.9717 6.90983H16.4329C17.4016 6.90983 17.8044 8.14945 17.0207 8.71885L14.2205 10.7533C13.87 11.0079 13.7234 11.4593 13.8572 11.8713L14.9268 15.1631C15.2261 16.0844 14.1717 16.8506 13.388 16.2812L10.5878 14.2467C10.2373 13.9921 9.7627 13.9921 9.41221 14.2467L6.61204 16.2812C5.82833 16.8506 4.77385 16.0844 5.0732 15.1631L6.14277 11.8713C6.27665 11.4593 6.12999 11.0079 5.7795 10.7533L2.97933 8.71885C2.19562 8.14945 2.59839 6.90983 3.56712 6.90983H7.02832C7.46154 6.90983 7.8455 6.63087 7.97937 6.21885L9.04894 2.92705Z" fill="#DDBF1E"/>
<path id="Star 2" d="M28.0489 2.92705C28.3483 2.00574 29.6517 2.00574 29.9511 2.92705L31.0206 6.21885C31.1545 6.63087 31.5385 6.90983 31.9717 6.90983H35.4329C36.4016 6.90983 36.8044 8.14945 36.0207 8.71885L33.2205 10.7533C32.87 11.0079 32.7234 11.4593 32.8572 11.8713L33.9268 15.1631C34.2261 16.0844 33.1717 16.8506 32.388 16.2812L29.5878 14.2467C29.2373 13.9921 28.7627 13.9921 28.4122 14.2467L25.612 16.2812C24.8283 16.8506 23.7739 16.0844 24.0732 15.1631L25.1428 11.8713C25.2766 11.4593 25.13 11.0079 24.7795 10.7533L21.9793 8.71885C21.1956 8.14945 21.5984 6.90983 22.5671 6.90983H26.0283C26.4615 6.90983 26.8455 6.63087 26.9794 6.21885L28.0489 2.92705Z" fill="#DDBF1E"/>
<path id="Star 3" d="M47.0489 2.92705C47.3483 2.00574 48.6517 2.00574 48.9511 2.92705L50.0206 6.21885C50.1545 6.63087 50.5385 6.90983 50.9717 6.90983H54.4329C55.4016 6.90983 55.8044 8.14945 55.0207 8.71885L52.2205 10.7533C51.87 11.0079 51.7234 11.4593 51.8572 11.8713L52.9268 15.1631C53.2261 16.0844 52.1717 16.8506 51.388 16.2812L48.5878 14.2467C48.2373 13.9921 47.7627 13.9921 47.4122 14.2467L44.612 16.2812C43.8283 16.8506 42.7739 16.0844 43.0732 15.1631L44.1428 11.8713C44.2766 11.4593 44.13 11.0079 43.7795 10.7533L40.9793 8.71885C40.1956 8.14945 40.5984 6.90983 41.5671 6.90983H45.0283C45.4615 6.90983 45.8455 6.63087 45.9794 6.21885L47.0489 2.92705Z" fill="#DDBF1E"/>
<path id="Star 4" d="M66.0489 2.92705C66.3483 2.00574 67.6517 2.00574 67.9511 2.92705L69.0206 6.21885C69.1545 6.63087 69.5385 6.90983 69.9717 6.90983H73.4329C74.4016 6.90983 74.8044 8.14945 74.0207 8.71885L71.2205 10.7533C70.87 11.0079 70.7234 11.4593 70.8572 11.8713L71.9268 15.1631C72.2261 16.0844 71.1717 16.8506 70.388 16.2812L67.5878 14.2467C67.2373 13.9921 66.7627 13.9921 66.4122 14.2467L63.612 16.2812C62.8283 16.8506 61.7739 16.0844 62.0732 15.1631L63.1428 11.8713C63.2766 11.4593 63.13 11.0079 62.7795 10.7533L59.9793 8.71885C59.1956 8.14945 59.5984 6.90983 60.5671 6.90983H64.0283C64.4615 6.90983 64.8455 6.63087 64.9794 6.21885L66.0489 2.92705Z" fill="#DDBF1E"/>
<path id="Star 5" d="M85.0489 2.92705C85.3483 2.00574 86.6517 2.00574 86.9511 2.92705L88.0206 6.21885C88.1545 6.63087 88.5385 6.90983 88.9717 6.90983H92.4329C93.4016 6.90983 93.8044 8.14945 93.0207 8.71885L90.2205 10.7533C89.87 11.0079 89.7234 11.4593 89.8572 11.8713L90.9268 15.1631C91.2261 16.0844 90.1717 16.8506 89.388 16.2812L86.5878 14.2467C86.2373 13.9921 85.7627 13.9921 85.4122 14.2467L82.612 16.2812C81.8283 16.8506 80.7739 16.0844 81.0732 15.1631L82.1428 11.8713C82.2766 11.4593 82.13 11.0079 81.7795 10.7533L78.9793 8.71885C78.1956 8.14945 78.5984 6.90983 79.5671 6.90983H83.0283C83.4615 6.90983 83.8455 6.63087 83.9794 6.21885L85.0489 2.92705Z" fill="#D9D9D9"/>
</g>
</svg>
