<svg width="97" height="20" viewBox="0 0 97 20" fill="none" xmlns="http://www.w3.org/2000/svg">
<g id="Group 2">
<path id="Star 1" d="M9.54894 2.92705C9.8483 2.00574 11.1517 2.00574 11.4511 2.92705L12.5206 6.21885C12.6545 6.63087 13.0385 6.90983 13.4717 6.90983H16.9329C17.9016 6.90983 18.3044 8.14945 17.5207 8.71885L14.7205 10.7533C14.37 11.0079 14.2234 11.4593 14.3572 11.8713L15.4268 15.1631C15.7261 16.0844 14.6717 16.8506 13.888 16.2812L11.0878 14.2467C10.7373 13.9921 10.2627 13.9921 9.91221 14.2467L7.11204 16.2812C6.32833 16.8506 5.27385 16.0844 5.5732 15.1631L6.64277 11.8713C6.77665 11.4593 6.62999 11.0079 6.2795 10.7533L3.47933 8.71885C2.69562 8.14945 3.09839 6.90983 4.06712 6.90983H7.52832C7.96154 6.90983 8.3455 6.63087 8.47937 6.21885L9.54894 2.92705Z" fill="#FBFBFB"/>
<path id="Star 2" d="M28.5489 2.92705C28.8483 2.00574 30.1517 2.00574 30.4511 2.92705L31.5206 6.21885C31.6545 6.63087 32.0385 6.90983 32.4717 6.90983H35.9329C36.9016 6.90983 37.3044 8.14945 36.5207 8.71885L33.7205 10.7533C33.37 11.0079 33.2234 11.4593 33.3572 11.8713L34.4268 15.1631C34.7261 16.0844 33.6717 16.8506 32.888 16.2812L30.0878 14.2467C29.7373 13.9921 29.2627 13.9921 28.9122 14.2467L26.112 16.2812C25.3283 16.8506 24.2739 16.0844 24.5732 15.1631L25.6428 11.8713C25.7766 11.4593 25.63 11.0079 25.2795 10.7533L22.4793 8.71885C21.6956 8.14945 22.0984 6.90983 23.0671 6.90983H26.5283C26.9615 6.90983 27.3455 6.63087 27.4794 6.21885L28.5489 2.92705Z" fill="#FBFBFB"/>
<path id="Star 3" d="M47.5489 2.92705C47.8483 2.00574 49.1517 2.00574 49.4511 2.92705L50.5206 6.21885C50.6545 6.63087 51.0385 6.90983 51.4717 6.90983H54.9329C55.9016 6.90983 56.3044 8.14945 55.5207 8.71885L52.7205 10.7533C52.37 11.0079 52.2234 11.4593 52.3572 11.8713L53.4268 15.1631C53.7261 16.0844 52.6717 16.8506 51.888 16.2812L49.0878 14.2467C48.7373 13.9921 48.2627 13.9921 47.9122 14.2467L45.112 16.2812C44.3283 16.8506 43.2739 16.0844 43.5732 15.1631L44.6428 11.8713C44.7766 11.4593 44.63 11.0079 44.2795 10.7533L41.4793 8.71885C40.6956 8.14945 41.0984 6.90983 42.0671 6.90983H45.5283C45.9615 6.90983 46.3455 6.63087 46.4794 6.21885L47.5489 2.92705Z" fill="#FBFBFB"/>
<path id="Star 4" d="M66.5489 2.92705C66.8483 2.00574 68.1517 2.00574 68.4511 2.92705L69.5206 6.21885C69.6545 6.63087 70.0385 6.90983 70.4717 6.90983H73.9329C74.9016 6.90983 75.3044 8.14945 74.5207 8.71885L71.7205 10.7533C71.37 11.0079 71.2234 11.4593 71.3572 11.8713L72.4268 15.1631C72.7261 16.0844 71.6717 16.8506 70.888 16.2812L68.0878 14.2467C67.7373 13.9921 67.2627 13.9921 66.9122 14.2467L64.112 16.2812C63.3283 16.8506 62.2739 16.0844 62.5732 15.1631L63.6428 11.8713C63.7766 11.4593 63.63 11.0079 63.2795 10.7533L60.4793 8.71885C59.6956 8.14945 60.0984 6.90983 61.0671 6.90983H64.5283C64.9615 6.90983 65.3455 6.63087 65.4794 6.21885L66.5489 2.92705Z" fill="#FBFBFB"/>
<path id="Star 5" d="M85.5489 2.92705C85.8483 2.00574 87.1517 2.00574 87.4511 2.92705L88.5206 6.21885C88.6545 6.63087 89.0385 6.90983 89.4717 6.90983H92.9329C93.9016 6.90983 94.3044 8.14945 93.5207 8.71885L90.7205 10.7533C90.37 11.0079 90.2234 11.4593 90.3572 11.8713L91.4268 15.1631C91.7261 16.0844 90.6717 16.8506 89.888 16.2812L87.0878 14.2467C86.7373 13.9921 86.2627 13.9921 85.9122 14.2467L83.112 16.2812C82.3283 16.8506 81.2739 16.0844 81.5732 15.1631L82.6428 11.8713C82.7766 11.4593 82.63 11.0079 82.2795 10.7533L79.4793 8.71885C78.6956 8.14945 79.0984 6.90983 80.0671 6.90983H83.5283C83.9615 6.90983 84.3455 6.63087 84.4794 6.21885L85.5489 2.92705Z" fill="#D9D9D9"/>
</g>
</svg>
