<svg width="29" height="29" viewBox="0 0 29 29" fill="none" xmlns="http://www.w3.org/2000/svg">
<path d="M15.7049 0.424194V2.35263C17.6123 2.35263 19.3992 2.83474 21.0657 3.79896C22.6518 4.74309 23.9167 6.00863 24.8603 7.59557C25.8241 9.26286 26.3059 11.0507 26.3059 12.959H28.2334C28.2334 10.6891 27.6612 8.57988 26.5168 6.63135C25.4125 4.74309 23.9167 3.24654 22.0294 2.14171C20.0819 0.996699 17.9737 0.424194 15.7049 0.424194ZM5.73636 3.31685C5.19426 3.31685 4.72243 3.4876 4.32088 3.82909L1.21888 6.99293L1.30923 6.93267C0.807285 7.35451 0.476004 7.8768 0.315382 8.49952C0.174839 9.12225 0.214994 9.72488 0.435848 10.3074C0.998023 11.8743 1.75094 13.4813 2.69459 15.1285C4.01971 17.3985 5.59581 19.4374 7.42288 21.2453C10.3542 24.1982 13.9983 26.5284 18.3552 28.2359H18.3853C18.9675 28.4368 19.5498 28.4769 20.1321 28.3564C20.7344 28.2359 21.2664 27.9747 21.7282 27.573L24.77 24.5297C25.1716 24.1279 25.3723 23.6357 25.3723 23.0532C25.3723 22.4506 25.1716 21.9484 24.77 21.5466L20.8247 17.5692C20.4232 17.1674 19.9212 16.9666 19.3189 16.9666C18.7166 16.9666 18.2146 17.1674 17.8131 17.5692L15.9157 19.4976C14.3898 18.7745 13.0647 17.8806 11.9404 16.8159C10.816 15.7312 9.92255 14.4154 9.25999 12.8686L11.1874 10.9402C11.6091 10.4983 11.8199 9.97598 11.8199 9.37335C11.8199 8.75062 11.579 8.24843 11.0971 7.86676L11.1874 7.95715L7.15183 3.82909C6.75028 3.4876 6.27845 3.31685 5.73636 3.31685ZM15.7049 4.28107V6.20951C16.9297 6.20951 18.054 6.51082 19.078 7.11346C20.122 7.7161 20.9452 8.5397 21.5475 9.58427C22.1499 10.6088 22.451 11.7337 22.451 12.959H24.3785C24.3785 11.3922 23.987 9.93581 23.2039 8.58992C22.4209 7.28421 21.3769 6.23964 20.0718 5.45621C18.7266 4.67278 17.271 4.28107 15.7049 4.28107ZM5.73636 5.24529C5.79659 5.24529 5.86686 5.27542 5.94717 5.33568L9.89244 9.37335C9.91251 9.4537 9.89244 9.52401 9.8322 9.58427L6.97113 12.4167L7.18195 13.0193L7.57346 13.863C7.89471 14.546 8.26614 15.2089 8.68778 15.8517C9.27003 16.7556 9.91251 17.529 10.6152 18.1718C11.5589 19.0959 12.6933 19.9396 14.0184 20.7029C14.681 21.0846 15.2431 21.3658 15.7049 21.5466L16.3073 21.8178L19.2286 18.895C19.2687 18.8548 19.2988 18.8347 19.3189 18.8347C19.339 18.8347 19.3691 18.8548 19.4093 18.895L23.475 22.9628C23.5151 23.003 23.5352 23.0331 23.5352 23.0532C23.5352 23.0532 23.5151 23.0733 23.475 23.1135L20.4633 26.0965C20.0216 26.4782 19.5398 26.5786 19.0177 26.3978C14.9219 24.8109 11.5087 22.6414 8.77812 19.8894C7.0916 18.202 5.61589 16.2836 4.351 14.1342C3.4475 12.5874 2.74478 11.0909 2.24284 9.64453V9.6144C2.16253 9.43361 2.15249 9.22269 2.21272 8.98163C2.27296 8.72049 2.38338 8.51961 2.544 8.379L5.52554 5.33568C5.58577 5.27542 5.65605 5.24529 5.73636 5.24529ZM15.7049 8.13794V10.0664C16.508 10.0664 17.1907 10.3476 17.7528 10.9101C18.315 11.4725 18.5961 12.1555 18.5961 12.959H20.5236C20.5236 12.0953 20.3027 11.2917 19.861 10.5485C19.4394 9.80524 18.8571 9.22269 18.1142 8.80084C17.3714 8.35891 16.5683 8.13794 15.7049 8.13794Z" fill="black"/>
</svg>
